<svg width="15" height="11" viewBox="0 0 15 11" fill="none" xmlns="http://www.w3.org/2000/svg">
<path d="M2.34416 0.463913C2.04809 -0.00230489 1.43013 -0.140235 0.963913 0.155837C0.497695 0.451909 0.359764 1.06987 0.655837 1.53609L2.34416 0.463913ZM7.07143 9.7732L7.96121 9.31681L7.94023 9.27591L7.91559 9.23711L7.07143 9.7732ZM7.92857 9.7732L8.754 10.3377L8.754 10.3377L7.92857 9.7732ZM14.3562 1.51666C14.6415 1.0438 14.4895 0.429154 14.0167 0.14381C13.5438 -0.141534 12.9292 0.0104783 12.6438 0.483339L14.3562 1.51666ZM0.655837 1.53609L6.22727 10.3093L7.91559 9.23711L2.34416 0.463913L0.655837 1.53609ZM6.18165 10.2296C6.45949 10.7713 7.00387 10.9841 7.4354 10.9991C7.89457 11.015 8.4219 10.8233 8.754 10.3377L7.10315 9.20869C7.21272 9.04847 7.3829 8.99603 7.50485 9.00026C7.59915 9.00354 7.82622 9.05364 7.96121 9.31681L6.18165 10.2296ZM8.754 10.3377C9.45341 9.31503 12.921 3.89499 14.3562 1.51666L12.6438 0.483339C11.2218 2.83975 7.77516 8.22607 7.10315 9.20869L8.754 10.3377Z" fill="#B5B5B6"/>
</svg>
